# xmcd
#
# Track frame offsets: 
#        150
#        23850
#        40362
#        54870
#        74989
#        90451
#        107425
#        125445
#        146779
#        171791
#        188858
#
# Disc length: 2733 seconds
#
# Revision: 0
# Processed by: cddbd v1.5.2PL0 Copyright (c) Steve Scherf et al.
# Submitted via: ExactAudioCopy v1.0b3
#
DISCID=9a0aab0b
DTITLE=谭炎健 - 笛飘四季
DYEAR=2011
DGENRE=Pop
TTITLE0=秋天的落霞
TTITLE1=明月证
TTITLE2=旅人
TTITLE3=夏天的味道
TTITLE4=印象喀什
TTITLE5=早安，广州
TTITLE6=春天的启航
TTITLE7=塔克凯玛干沙漠
TTITLE8=梅家大院
TTITLE9=谁是英雄主题变奏
TTITLE10=冬天的艳阳
EXTD=
EXTT0=
EXTT1=
EXTT2=
EXTT3=
EXTT4=
EXTT5=
EXTT6=
EXTT7=
EXTT8=
EXTT9=
EXTT10=
PLAYORDER=
